<svg width="400" height="400" viewBox="0 0 400 400" fill="none" xmlns="http://www.w3.org/2000/svg">
<rect width="400" height="400" rx="30" fill="#0563BB"/>
<path d="M73.403 220.352L10.299 197.056V177.344L73.403 154.048V172.736L17.467 192.576V181.824L73.403 201.664V220.352ZM117.355 232L79.083 142.4H106.475L138.731 219.968H122.603L155.627 142.4H180.715L142.315 232H117.355ZM185.96 232V142.4H226.92C235.112 142.4 242.152 143.723 248.04 146.368C254.013 149.013 258.621 152.853 261.864 157.888C265.107 162.837 266.728 168.725 266.728 175.552C266.728 182.293 265.107 188.139 261.864 193.088C258.621 198.037 254.013 201.877 248.04 204.608C242.152 207.253 235.112 208.576 226.92 208.576H200.04L211.304 197.568V232H185.96ZM211.304 200.256L200.04 188.608H225.384C230.675 188.608 234.6 187.456 237.16 185.152C239.805 182.848 241.128 179.648 241.128 175.552C241.128 171.371 239.805 168.128 237.16 165.824C234.6 163.52 230.675 162.368 225.384 162.368H200.04L211.304 150.72V200.256ZM261.264 244.8L303.504 124.224H325.136L282.896 244.8H261.264ZM326.549 220.352V201.664L382.613 181.824V192.576L326.549 172.736V154.048L389.653 177.344V197.056L326.549 220.352Z" fill="white"/>
</svg>
